<?xml version="1.0" encoding="UTF-8" ?>
<!DOCTYPE svg PUBLIC "-//W3C//DTD SVG 1.1//EN" "http://www.w3.org/Graphics/SVG/1.1/DTD/svg11.dtd">
<svg width="100pt" height="100pt" viewBox="0 0 100 100" version="1.1" xmlns="http://www.w3.org/2000/svg">
<path fill="#ffffff" d=" M 0.00 0.00 L 48.61 0.00 C 35.98 0.39 23.56 5.65 14.67 14.67 C 5.64 23.57 0.37 36.01 0.00 48.67 L 0.00 0.00 Z" />
<path fill="#e74c3c" d=" M 48.61 0.00 L 51.84 0.00 C 64.31 0.53 76.54 5.75 85.32 14.67 C 94.35 23.57 99.61 35.99 100.00 48.64 L 100.00 51.88 C 99.43 64.33 94.25 76.54 85.34 85.31 C 76.52 94.27 64.21 99.52 51.67 100.00 L 48.11 100.00 C 35.65 99.45 23.45 94.24 14.67 85.33 C 5.72 76.50 0.46 64.20 0.00 51.65 L 0.00 48.67 C 0.37 36.01 5.64 23.57 14.67 14.67 C 23.56 5.65 35.98 0.39 48.61 0.00 Z" />
<path fill="#ffffff" d=" M 51.84 0.00 L 100.00 0.00 L 100.00 48.64 C 99.61 35.99 94.35 23.57 85.32 14.67 C 76.54 5.75 64.31 0.53 51.84 0.00 Z" />
<path fill="#ffffff" d=" M 57.39 19.47 C 61.78 17.84 66.63 22.44 65.17 26.89 C 64.31 30.93 58.93 32.96 55.67 30.33 C 51.60 27.71 52.62 20.66 57.39 19.47 Z" />
<path fill="#ffffff" d=" M 47.54 32.47 C 49.05 31.17 51.17 31.42 53.00 31.63 C 57.49 34.58 60.16 39.49 63.77 43.35 C 67.22 44.70 71.12 43.70 74.76 44.01 C 74.76 46.09 74.75 48.16 74.75 50.24 C 71.15 50.24 67.55 50.27 63.94 50.27 C 59.64 50.58 57.38 46.15 54.74 43.50 C 52.37 45.50 50.08 47.59 47.74 49.62 C 49.75 51.82 52.83 53.68 52.98 56.96 C 53.05 61.81 52.97 66.65 52.99 71.50 C 51.00 71.50 49.00 71.50 47.01 71.50 C 46.99 66.93 47.01 62.37 47.00 57.80 C 43.58 55.58 39.83 53.86 36.55 51.43 C 33.78 49.26 34.41 45.01 36.71 42.74 C 40.19 39.19 43.55 35.46 47.54 32.47 Z" />
<path fill="#ffffff" d=" M 0.00 51.65 C 0.46 64.20 5.72 76.50 14.67 85.33 C 23.45 94.24 35.65 99.45 48.11 100.00 L 0.00 100.00 L 0.00 51.65 Z" />
<path fill="#ffffff" d=" M 85.34 85.31 C 94.25 76.54 99.43 64.33 100.00 51.88 L 100.00 100.00 L 51.67 100.00 C 64.21 99.52 76.52 94.27 85.34 85.31 Z" />
<path fill="#ffffff" d=" M 28.45 56.57 C 36.07 54.33 44.45 61.11 43.77 69.03 C 43.69 76.27 36.25 82.15 29.17 80.58 C 21.85 79.40 17.10 70.82 20.04 63.98 C 21.49 60.39 24.68 57.52 28.45 56.57 Z" />
<path fill="#ffffff" d=" M 65.43 56.58 C 72.67 54.46 80.74 60.44 80.78 67.98 C 81.32 75.26 74.27 81.82 67.05 80.71 C 59.88 80.09 54.56 72.32 56.58 65.40 C 57.67 61.16 61.19 57.65 65.43 56.58 Z" />
<path fill="#e74c3c" d=" M 29.31 61.45 C 34.66 59.43 40.57 65.39 38.55 70.72 C 37.14 75.83 29.87 77.74 26.30 73.70 C 22.25 70.13 24.18 62.82 29.31 61.45 Z" />
<path fill="#e74c3c" d=" M 66.32 61.44 C 71.63 59.45 77.53 65.34 75.57 70.65 C 74.21 75.81 66.87 77.75 63.29 73.69 C 59.25 70.11 61.19 62.82 66.32 61.44 Z" />
</svg>
