<?xml version="1.0" encoding="UTF-8" ?>
<!DOCTYPE svg PUBLIC "-//W3C//DTD SVG 1.1//EN" "http://www.w3.org/Graphics/SVG/1.1/DTD/svg11.dtd">
<svg width="100pt" height="100pt" viewBox="0 0 100 100" version="1.1" xmlns="http://www.w3.org/2000/svg">
<path fill="#ffffff" d=" M 0.00 0.00 L 48.61 0.00 C 35.97 0.39 23.56 5.66 14.67 14.67 C 5.65 23.58 0.37 36.00 0.00 48.66 L 0.00 0.00 Z" />
<path fill="#3498db" d=" M 48.61 0.00 L 51.99 0.00 C 64.17 0.58 76.10 5.58 84.81 14.16 C 94.13 23.09 99.60 35.73 100.00 48.61 L 100.00 52.02 C 99.40 63.72 94.81 75.21 86.80 83.79 C 77.90 93.62 64.97 99.48 51.75 100.00 L 47.94 100.00 C 35.55 99.40 23.43 94.20 14.69 85.35 C 5.74 76.53 0.48 64.26 0.00 51.72 L 0.00 48.66 C 0.37 36.00 5.65 23.58 14.67 14.67 C 23.56 5.66 35.97 0.39 48.61 0.00 Z" />
<path fill="#ffffff" d=" M 51.99 0.00 L 100.00 0.00 L 100.00 48.61 C 99.60 35.73 94.13 23.09 84.81 14.16 C 76.10 5.58 64.17 0.58 51.99 0.00 Z" />
<path fill="#ffffff" d=" M 66.46 19.55 C 70.12 18.11 74.52 20.98 74.64 24.92 C 75.12 29.56 69.45 33.32 65.46 30.67 C 60.96 28.44 61.52 20.89 66.46 19.55 Z" />
<path fill="#ffffff" d=" M 30.74 25.39 C 35.46 24.27 40.07 22.64 44.85 21.79 C 48.79 21.20 51.97 24.02 54.89 26.20 C 58.18 28.88 61.87 31.07 64.91 34.05 C 67.61 36.62 66.26 41.41 69.33 43.60 C 73.12 43.99 76.93 43.66 80.74 43.74 C 80.73 45.82 80.75 47.91 80.77 50.00 C 75.36 49.50 68.90 51.58 64.41 47.58 C 62.11 45.77 61.49 42.80 60.89 40.10 C 57.77 42.72 54.56 45.22 51.44 47.83 C 52.92 51.24 54.87 54.48 55.90 58.07 C 56.79 61.69 53.65 65.46 49.97 65.40 C 42.81 65.66 35.65 65.42 28.49 65.50 C 28.51 63.41 28.52 61.33 28.51 59.24 C 35.46 59.25 42.42 59.27 49.38 59.23 C 47.11 55.94 44.63 52.80 42.37 49.51 C 40.57 47.08 40.75 43.24 43.15 41.25 C 46.35 38.22 49.90 35.57 53.16 32.60 C 50.78 30.96 48.66 28.72 45.84 27.90 C 41.25 28.76 36.81 30.33 32.25 31.37 C 31.75 29.38 31.24 27.38 30.74 25.39 Z" />
<path fill="#ffffff" d=" M 19.25 34.50 C 27.58 34.51 35.92 34.47 44.25 34.53 C 42.30 35.75 40.58 37.95 38.05 37.75 C 31.79 37.79 25.52 37.73 19.25 37.75 C 19.25 36.94 19.25 35.32 19.25 34.50 Z" />
<path fill="#ffffff" d=" M 19.25 40.76 C 25.25 40.75 31.24 40.75 37.23 40.76 C 37.00 41.51 36.55 43.01 36.32 43.76 C 30.62 43.74 24.93 43.76 19.24 43.74 C 19.24 43.00 19.25 41.50 19.25 40.76 Z" />
<path fill="#ffffff" d=" M 19.24 47.01 C 24.85 46.99 30.46 47.00 36.08 47.00 C 36.39 48.00 36.70 49.00 37.01 50.00 C 31.09 50.00 25.16 50.01 19.24 49.99 C 19.24 49.24 19.24 47.76 19.24 47.01 Z" />
<path fill="#ffffff" d=" M 0.00 51.72 C 0.48 64.26 5.74 76.53 14.69 85.35 C 23.43 94.20 35.55 99.40 47.94 100.00 L 0.00 100.00 L 0.00 51.72 Z" />
<path fill="#ffffff" d=" M 86.80 83.79 C 94.81 75.21 99.40 63.72 100.00 52.02 L 100.00 100.00 L 51.75 100.00 C 64.97 99.48 77.90 93.62 86.80 83.79 Z" />
<path fill="#ffffff" d=" M 32.11 77.52 C 34.88 74.37 37.91 71.47 40.88 68.50 C 43.68 68.51 46.49 68.50 49.30 68.48 C 45.45 72.72 41.39 76.75 37.36 80.81 C 35.61 79.71 33.86 78.61 32.11 77.52 Z" />
</svg>
