<?xml version="1.0" encoding="UTF-8" ?>
<!DOCTYPE svg PUBLIC "-//W3C//DTD SVG 1.1//EN" "http://www.w3.org/Graphics/SVG/1.1/DTD/svg11.dtd">
<svg width="100pt" height="100pt" viewBox="0 0 100 100" version="1.1" xmlns="http://www.w3.org/2000/svg">
<path fill="#ffffff" d=" M 0.00 0.00 L 48.62 0.00 C 36.20 0.39 24.00 5.46 15.15 14.20 C 5.83 23.15 0.35 35.82 0.00 48.72 L 0.00 0.00 Z" />
<path fill="#2ecc71" d=" M 48.62 0.00 L 51.30 0.00 C 63.97 0.37 76.42 5.64 85.34 14.68 C 94.35 23.58 99.61 35.99 100.00 48.63 L 100.00 51.86 C 99.45 63.63 94.83 75.20 86.76 83.83 C 77.85 93.66 64.90 99.51 51.67 100.00 L 48.12 100.00 C 35.90 99.46 23.91 94.44 15.18 85.84 C 5.87 76.90 0.38 64.27 0.00 51.39 L 0.00 48.72 C 0.35 35.82 5.83 23.15 15.15 14.20 C 24.00 5.46 36.20 0.39 48.62 0.00 Z" />
<path fill="#ffffff" d=" M 51.30 0.00 L 100.00 0.00 L 100.00 48.63 C 99.61 35.99 94.35 23.58 85.34 14.68 C 76.42 5.64 63.97 0.37 51.30 0.00 Z" />
<path fill="#ffffff" d=" M 50.50 19.61 C 53.90 18.20 58.26 20.44 58.83 24.14 C 60.15 29.13 53.62 33.71 49.46 30.47 C 45.29 28.12 46.02 21.15 50.50 19.61 Z" />
<path fill="#ffffff" d=" M 39.03 37.13 C 43.73 35.54 49.25 33.24 53.96 36.07 C 58.32 38.30 58.81 43.72 61.74 47.17 C 63.92 48.75 66.64 49.28 69.13 50.17 C 68.50 52.08 67.88 54.00 67.26 55.92 C 64.07 54.90 60.64 54.19 57.97 52.06 C 55.71 50.30 54.66 47.56 53.40 45.10 C 53.28 49.35 49.49 54.30 52.90 58.06 C 55.17 61.51 58.04 64.65 59.47 68.59 C 60.96 72.68 62.53 76.74 64.13 80.78 C 61.97 80.76 59.82 80.74 57.67 80.73 C 56.07 76.72 54.88 72.55 53.12 68.61 C 50.12 63.87 45.09 60.66 42.49 55.65 C 41.59 50.98 43.93 46.38 44.50 41.78 C 42.84 42.33 41.08 42.70 39.57 43.61 C 37.19 45.96 35.70 49.02 33.78 51.73 C 32.06 50.56 30.34 49.39 28.62 48.22 C 31.66 44.21 33.78 38.71 39.03 37.13 Z" />
<path fill="#ffffff" d=" M 0.00 51.39 C 0.38 64.27 5.87 76.90 15.18 85.84 C 23.91 94.44 35.90 99.46 48.12 100.00 L 0.00 100.00 L 0.00 51.39 Z" />
<path fill="#ffffff" d=" M 86.76 83.83 C 94.83 75.20 99.45 63.63 100.00 51.86 L 100.00 100.00 L 51.67 100.00 C 64.90 99.51 77.85 93.66 86.76 83.83 Z" />
<path fill="#ffffff" d=" M 36.91 70.92 C 39.39 67.85 39.76 63.77 41.04 60.16 C 42.57 61.90 44.11 63.65 45.65 65.39 C 44.54 68.52 44.13 72.13 41.71 74.60 C 39.94 76.54 38.31 78.64 36.37 80.41 C 34.07 81.14 31.57 80.65 29.19 80.72 C 31.74 77.43 34.34 74.18 36.91 70.92 Z" />
</svg>
